Coordinates
version=1
nRows=14
nColumns=40
inDegrees=yes

Units are S.I. units (second, meters, Newtons, ...)
Angles are in degrees.

endheader
time	pelvis_tilt	pelvis_list	pelvis_rotation	pelvis_tx	pelvis_ty	pelvis_tz	hip_flexion_r	hip_adduction_r	hip_rotation_r	knee_angle_r	knee_angle_r_beta	ankle_angle_r	subtalar_angle_r	mtp_angle_r	hip_flexion_l	hip_adduction_l	hip_rotation_l	knee_angle_l	knee_angle_l_beta	ankle_angle_l	subtalar_angle_l	mtp_angle_l	lumbar_extension	lumbar_bending	lumbar_rotation	arm_flex_r	arm_add_r	arm_rot_r	elbow_flex_r	pro_sup_r	wrist_flex_r	wrist_dev_r	arm_flex_l	arm_add_l	arm_rot_l	elbow_flex_l	pro_sup_l	wrist_flex_l	wrist_dev_l
      0.00000000	     -2.89026830	      0.77644362	     -0.83234077	     -1.21371505	      0.90005217	      1.42001683	      3.31113197	     -5.39426587	     -7.91939640	    -42.78069342	     -0.74666396	     -7.29561722	      0.79430013	     -0.17418002	     12.79591354	     -3.21865914	     10.23170133	    -14.38541185	     -0.25107280	      1.35440002	     -7.20492427	     -3.46048571	     -5.04126178	     -0.93953080	      4.27608919	      7.73850025	    -11.07926786	     14.91971745	     15.56430756	     89.95437384	      0.00000000	      0.00000000	      3.19887245	     12.24576718	    -11.65010274	     16.89868930	     89.95437384	      0.00000000	      0.00000000
      0.01000000	     -2.54766622	      0.73112116	     -0.85474570	     -1.20810456	      0.90059408	      1.41919869	      3.93292811	     -5.50773303	     -7.80125160	    -44.32537818	     -0.77362379	     -7.07961699	      0.25038139	     -0.17993475	     11.99344796	     -3.22963632	     10.09396708	    -14.41766044	     -0.25163565	      1.71423498	     -7.33707181	     -3.51810385	     -5.45720545	     -0.95087891	      3.78414656	      7.83310691	    -11.06749561	     14.90300956	     15.73311584	     89.95437384	      0.00000000	      0.00000000	      3.98395134	     12.68542106	    -11.71034808	     16.70065896	     89.95437384	      0.00000000	      0.00000000
      0.02000000	     -2.23474824	      1.12097409	     -1.23218352	     -1.20242324	      0.90092465	      1.41862786	      4.74518805	     -6.00910495	     -7.23802601	    -45.98888199	     -0.80265741	     -6.19530018	     -1.88308401	      0.11815812	     11.05977496	     -3.70972565	     10.27187696	    -14.08295810	     -0.24579399	      1.98754889	     -7.30812112	     -3.58252936	     -5.72700056	     -1.46104389	      3.69839651	      7.76610965	    -11.06005190	     14.94886498	     16.08508214	     89.95437384	      0.00000000	      0.00000000	      4.93354744	     13.21584173	    -12.72383766	     16.19538760	     89.95437384	      0.00000000	      0.00000000
      0.03000000	     -1.91784555	      1.23505382	     -1.27187258	     -1.19704467	      0.90131282	      1.41779534	      5.45427068	     -6.30103446	     -7.20881716	    -47.39712531	     -0.82723589	     -5.15518790	     -3.20163502	      0.22035325	     10.27303673	     -3.90109154	     10.30373032	    -14.03254190	     -0.24491406	      2.37605809	     -7.44262368	     -3.62354239	     -6.08616326	     -1.63823073	      3.30024943	      7.79045142	    -11.04375980	     14.92640762	     16.35136918	     89.95437384	      0.00000000	      0.00000000	      5.83126948	     13.68962966	    -13.14623734	     16.00732660	     89.95437384	      0.00000000	      0.00000000
      0.04000000	     -1.63349568	      1.28275032	     -1.36675452	     -1.19172056	      0.90165416	      1.41719059	      6.21477010	     -6.45410888	     -7.14644455	    -48.59836092	     -0.84820141	     -4.59863167	     -4.98482669	      0.61968564	      9.55064320	     -3.99650415	     10.44379830	    -13.99485001	     -0.24425621	      2.63855435	     -7.61643995	     -3.66791763	     -6.38746554	     -1.74935877	      2.97959382	      7.79291000	    -11.01974669	     14.92618517	     16.62210559	     89.95437384	      0.00000000	      0.00000000	      6.73417324	     14.20617919	    -14.03929428	     15.77441282	     89.95437384	      0.00000000	      0.00000000
      0.05000000	     -1.39295695	      1.12182428	     -1.32654208	     -1.18649505	      0.90197044	      1.41627048	      6.96912100	     -6.49780812	     -7.38393294	    -49.59352444	     -0.86557029	     -4.18790465	     -5.39651287	      0.60743352	      8.91584590	     -3.88361888	     10.52293444	    -14.01950022	     -0.24468644	      2.92559057	     -7.63307844	     -3.68912359	     -6.66115521	     -1.57509110	      2.42743436	      7.87108326	    -10.99999900	     14.88427796	     16.84355165	     89.95437384	      0.00000000	      0.00000000	      7.47518850	     14.61164642	    -14.04521614	     15.74713064	     89.95437384	      0.00000000	      0.00000000
      0.06000000	     -1.20884031	      1.37224577	     -1.45164584	     -1.18124300	      0.90221141	      1.41575820	      7.81200425	     -6.86603642	     -7.37590973	    -50.48440237	     -0.88111904	     -4.43570187	     -7.93972303	      1.18656806	      8.19895680	     -4.20739137	     10.66955128	    -13.77105280	     -0.24035021	      3.10725150	     -8.08228520	     -3.74477710	     -6.84287598	     -1.92602592	      2.23639447	      7.71574840	    -10.92643439	     14.69691867	     17.18090229	     89.95437384	      0.00000000	      0.00000000	      8.48427500	     15.02313872	    -14.53962119	     15.46657833	     89.95437384	      0.00000000	      0.00000000
      0.07000000	     -1.03586674	      1.13866593	     -1.36046220	     -1.17615153	      0.90259021	      1.41495411	      8.67726634	     -6.74270852	     -7.63818441	    -51.17375466	     -0.89315051	     -3.53432290	     -8.40843029	      1.14699866	      7.53810094	     -4.02503950	     10.77772124	    -13.60140740	     -0.23738934	      3.38537930	     -8.12135027	     -3.76081109	     -7.03825277	     -1.66376292	      1.67163281	      7.79881361	    -10.85397549	     14.65288663	     17.21790452	     89.95437384	      0.00000000	      0.00000000	      9.23498234	     15.38614447	    -14.56874381	     15.45619378	     89.95437384	      0.00000000	      0.00000000
      0.08000000	     -0.81975322	      1.13442518	     -1.33848610	     -1.17096942	      0.90298604	      1.41431114	      9.38963675	     -6.78714041	     -7.71497113	    -51.68660353	     -0.90210141	     -1.76973995	     -9.87973421	      1.19701113	      6.74245050	     -4.11449298	     10.64223692	    -13.28344794	     -0.23183990	      3.72602527	     -8.50374419	     -3.83693273	     -7.26198627	     -1.69273958	      1.37701287	      7.73655597	    -10.76466712	     14.51441397	     17.29278079	     89.95437384	      0.00000000	      0.00000000	     10.25005679	     15.65340636	    -14.63542589	     15.23674184	     89.95437384	      0.00000000	      0.00000000
      0.09000000	     -0.54529348	      0.99264452	     -1.40586091	     -1.16574178	      0.90361181	      1.41408290	      9.98041877	     -6.48252523	     -7.58386399	    -51.81243769	     -0.90429763	     -1.48608294	    -11.63737793	      2.04748811	      5.83553947	     -4.00673213	     10.76179581	    -12.85876696	     -0.22442782	      3.78059972	     -8.66126784	     -3.80047335	     -7.56566508	     -1.60370720	      1.15777464	      7.58312018	    -10.59585670	     13.71155131	     17.50001530	     89.95437384	      0.00000000	      0.00000000	     11.06078401	     16.07066780	    -15.18028314	     15.35329059	     89.95437384	      0.00000000	      0.00000000
      0.10000000	     -0.49006424	      0.89477198	     -1.31068753	     -1.16076938	      0.90387095	      1.41332512	     10.87949406	     -6.46265076	     -7.86752127	    -51.98923577	     -0.90738334	     -0.83730210	    -11.90167426	      2.06439119	      5.29528969	     -3.96084820	     10.82865550	    -12.69065480	     -0.22149371	      4.02710583	     -8.78683591	     -3.82117588	     -7.62962370	     -1.48593722	      0.73699773	      7.51965948	    -10.51615646	     13.61910086	     17.56586142	     89.95437384	      0.00000000	      0.00000000	     11.79688673	     16.37339247	    -15.10776850	     15.53077112	     89.95437384	      0.00000000	      0.00000000
      0.11000000	     -0.27450445	      0.83694917	     -1.21736995	     -1.15569615	      0.90442792	      1.41270893	     11.47111569	     -6.32967722	     -7.95819260	    -51.80705329	     -0.90420366	      0.02413909	    -12.70362672	      2.59690650	      4.49121253	     -3.96671176	     10.74818642	    -12.29201471	     -0.21453613	      3.93521167	     -9.39748507	     -3.85125444	     -7.91057832	     -1.43491600	      0.38942326	      7.34336319	    -10.34031355	     12.76958280	     17.77443480	     89.95437384	      0.00000000	      0.00000000	     12.55769988	     16.62671794	    -14.74151369	     15.89906574	     89.95437384	      0.00000000	      0.00000000
      0.12000000	     -0.28949556	      0.72478839	     -1.14701301	     -1.15075864	      0.90454233	      1.41220926	     12.39695380	     -6.19538916	     -8.14697830	    -51.63226226	     -0.90115298	      0.43610299	    -12.67298977	      2.59855829	      4.08540649	     -3.88011320	     10.80585631	    -12.18604413	     -0.21268659	      4.18458708	     -9.38227896	     -3.85528476	     -7.88870754	     -1.32737477	      0.05627886	      7.17165736	    -10.24106651	     12.69690371	     17.84920802	     89.95437384	      0.00000000	      0.00000000	     13.18558177	     16.92898384	    -14.61923999	     16.31335459	     89.95437384	      0.00000000	      0.00000000
      0.13000000	     -0.29115431	      0.61680456	     -1.07157347	     -1.14592834	      0.90469082	      1.41172605	     13.27132430	     -6.00287125	     -8.24508601	    -51.25603329	     -0.89458654	      1.12686831	    -12.71875363	      2.59266064	      3.62827782	     -3.81364776	     10.70087001	    -12.00063773	     -0.20945064	      4.41633527	     -9.49948004	     -3.87433544	     -7.90672357	     -1.21705945	     -0.22283408	      6.99480840	    -10.13827878	     12.58616184	     17.88994302	     89.95437384	      0.00000000	      0.00000000	     13.84283769	     17.17914444	    -14.45410914	     16.79823165	     89.95437384	      0.00000000	      0.00000000
